<?xml version="1.0" encoding="UTF-8" standalone="no"?>
<!-- Created with Inkscape (http://www.inkscape.org/) -->

<svg
   xmlns:dc="http://purl.org/dc/elements/1.1/"
   xmlns:cc="http://creativecommons.org/ns#"
   xmlns:rdf="http://www.w3.org/1999/02/22-rdf-syntax-ns#"
   xmlns:svg="http://www.w3.org/2000/svg"
   xmlns="http://www.w3.org/2000/svg"
   xmlns:sodipodi="http://sodipodi.sourceforge.net/DTD/sodipodi-0.dtd"
   xmlns:inkscape="http://www.inkscape.org/namespaces/inkscape"
   width="27.300604mm"
   height="4.5155559mm"
   viewBox="0 0 96.734423 16.000001"
   id="svg4261"
   version="1.1"
   inkscape:version="0.91 r13725"
   sodipodi:docname="20160809 - Cinegen Logo Text Century Gothic Single.svg">
  <defs
     id="defs4263" />
  <sodipodi:namedview
     id="base"
     pagecolor="#ffffff"
     bordercolor="#666666"
     borderopacity="1.0"
     inkscape:pageopacity="0.0"
     inkscape:pageshadow="2"
     inkscape:zoom="15.051521"
     inkscape:cx="48.367205"
     inkscape:cy="8.0000011"
     inkscape:document-units="px"
     inkscape:current-layer="layer1"
     showgrid="false"
     inkscape:showpageshadow="false"
     fit-margin-top="0"
     fit-margin-left="0"
     fit-margin-right="0"
     fit-margin-bottom="0"
     inkscape:window-width="1920"
     inkscape:window-height="1155"
     inkscape:window-x="1920"
     inkscape:window-y="1"
     inkscape:window-maximized="1" />
  <metadata
     id="metadata4266">
    <rdf:RDF>
      <cc:Work
         rdf:about="">
        <dc:format>image/svg+xml</dc:format>
        <dc:type
           rdf:resource="http://purl.org/dc/dcmitype/StillImage" />
        <dc:title></dc:title>
      </cc:Work>
    </rdf:RDF>
  </metadata>
  <g
     inkscape:label="Layer 1"
     inkscape:groupmode="layer"
     id="layer1"
     transform="translate(-128.14629,-187.28007)">
    <g
       id="g4893">
      <path
         d="M 143.0382,190.49042 141.8369,191.4121 Q 140.84273,190.11761 139.44467,189.45482 138.05697,188.78168 136.38965,188.78168 134.567,188.78168 133.0136,189.66194 131.4602,190.53185 130.60066,192.01275 129.75147,193.4833 129.75147,195.32667 129.75147,198.11243 131.65697,199.97651 133.57282,201.84058 136.48286,201.84058 139.68286,201.84058 141.8369,199.33444 L 143.0382,200.24576 Q 141.89904,201.6956 140.1903,202.49301 138.49192,203.28007 136.38965,203.28007 132.39224,203.28007 130.08286,200.61858 128.14629,198.37133 128.14629,195.19204 128.14629,191.84706 130.48674,189.56874 132.83755,187.28007 136.36894,187.28007 138.50228,187.28007 140.22137,188.12926 141.94046,188.96809 143.0382,190.49042 Z"
         style="font-style:normal;font-variant:normal;font-weight:normal;font-stretch:normal;font-size:medium;line-height:125%;font-family:'Century Gothic';-inkscape-font-specification:'Century Gothic';letter-spacing:4.28000021px;word-spacing:0px;fill:#ffffff;fill-opacity:1;stroke:none;stroke-width:1px;stroke-linecap:butt;stroke-linejoin:miter;stroke-opacity:1"
         id="path4171"
         inkscape:connector-curvature="0" />
      <path
         d="M 146.73687,187.66324 148.2592,187.66324 148.2592,202.89689 146.73687,202.89689 146.73687,187.66324 Z"
         style="font-style:normal;font-variant:normal;font-weight:normal;font-stretch:normal;font-size:medium;line-height:125%;font-family:'Century Gothic';-inkscape-font-specification:'Century Gothic';letter-spacing:4.28000021px;word-spacing:0px;fill:#ffffff;fill-opacity:1;stroke:none;stroke-width:1px;stroke-linecap:butt;stroke-linejoin:miter;stroke-opacity:1"
         id="path4173"
         inkscape:connector-curvature="0" />
      <path
         d="M 152.59994,202.89689 152.59994,187.66324 152.93133,187.66324 163.05948,199.32408 163.05948,187.66324 164.5611,187.66324 164.5611,202.89689 164.21935,202.89689 154.17405,191.38104 154.17405,202.89689 152.59994,202.89689 Z"
         style="font-style:normal;font-variant:normal;font-weight:normal;font-stretch:normal;font-size:medium;line-height:125%;font-family:'Century Gothic';-inkscape-font-specification:'Century Gothic';letter-spacing:4.28000021px;word-spacing:0px;fill:#ffffff;fill-opacity:1;stroke:none;stroke-width:1px;stroke-linecap:butt;stroke-linejoin:miter;stroke-opacity:1"
         id="path4175"
         inkscape:connector-curvature="0" />
      <path
         d="M 169.12967,187.66324 177.85977,187.66324 177.85977,189.16486 170.652,189.16486 170.652,193.92861 177.79763,193.92861 177.79763,195.41987 170.652,195.41987 170.652,201.39528 177.79763,201.39528 177.79763,202.89689 169.12967,202.89689 169.12967,187.66324 Z"
         style="font-style:normal;font-variant:normal;font-weight:normal;font-stretch:normal;font-size:medium;line-height:125%;font-family:'Century Gothic';-inkscape-font-specification:'Century Gothic';letter-spacing:4.28000021px;word-spacing:0px;fill:#ffffff;fill-opacity:1;stroke:none;stroke-width:1px;stroke-linecap:butt;stroke-linejoin:miter;stroke-opacity:1"
         id="path4177"
         inkscape:connector-curvature="0" />
      <path
         d="M 196.03611,190.22117 194.85553,191.33961 Q 193.58174,190.08654 192.05941,189.44447 190.54744,188.79204 189.10795,188.79204 187.31637,188.79204 185.69048,189.6723 184.07495,190.55256 183.18433,192.06453 182.29372,193.56615 182.29372,195.24382 182.29372,196.96291 183.2154,198.51631 184.13708,200.05935 185.76297,200.94997 187.38886,201.83023 189.32543,201.83023 191.67624,201.83023 193.30213,200.50466 194.92802,199.1791 195.22834,197.06647 L 190.37139,197.06647 190.37139,195.59592 196.93708,195.59592 Q 196.91637,199.12732 194.83482,201.20887 192.76362,203.28007 189.28401,203.28007 185.05876,203.28007 182.59404,200.4011 180.69889,198.18492 180.69889,195.27489 180.69889,193.11049 181.78627,191.24641 182.87365,189.38233 184.7688,188.33638 186.66394,187.28007 189.05617,187.28007 190.99274,187.28007 192.70148,187.98427 194.41022,188.67812 196.03611,190.22117 Z"
         style="font-style:normal;font-variant:normal;font-weight:normal;font-stretch:normal;font-size:medium;line-height:125%;font-family:'Century Gothic';-inkscape-font-specification:'Century Gothic';letter-spacing:4.28000021px;word-spacing:0px;fill:#ffffff;fill-opacity:1;stroke:none;stroke-width:1px;stroke-linecap:butt;stroke-linejoin:miter;stroke-opacity:1"
         id="path4179"
         inkscape:connector-curvature="0" />
      <path
         d="M 200.69788,187.66324 209.42798,187.66324 209.42798,189.16486 202.22021,189.16486 202.22021,193.92861 209.36584,193.92861 209.36584,195.41987 202.22021,195.41987 202.22021,201.39528 209.36584,201.39528 209.36584,202.89689 200.69788,202.89689 200.69788,187.66324 Z"
         style="font-style:normal;font-variant:normal;font-weight:normal;font-stretch:normal;font-size:medium;line-height:125%;font-family:'Century Gothic';-inkscape-font-specification:'Century Gothic';letter-spacing:4.28000021px;word-spacing:0px;fill:#ffffff;fill-opacity:1;stroke:none;stroke-width:1px;stroke-linecap:butt;stroke-linejoin:miter;stroke-opacity:1"
         id="path4181"
         inkscape:connector-curvature="0" />
      <path
         d="M 212.91953,202.89689 212.91953,187.66324 213.25092,187.66324 223.37908,199.32408 223.37908,187.66324 224.8807,187.66324 224.8807,202.89689 224.53895,202.89689 214.49364,191.38104 214.49364,202.89689 212.91953,202.89689 Z"
         style="font-style:normal;font-variant:normal;font-weight:normal;font-stretch:normal;font-size:medium;line-height:125%;font-family:'Century Gothic';-inkscape-font-specification:'Century Gothic';letter-spacing:4.28000021px;word-spacing:0px;fill:#ffffff;fill-opacity:1;stroke:none;stroke-width:1px;stroke-linecap:butt;stroke-linejoin:miter;stroke-opacity:1"
         id="path4183"
         inkscape:connector-curvature="0" />
    </g>
  </g>
</svg>
