<?xml version="1.0" encoding="UTF-8" standalone="no"?>
<!-- Created with Inkscape (http://www.inkscape.org/) -->

<svg
   xmlns:dc="http://purl.org/dc/elements/1.1/"
   xmlns:cc="http://creativecommons.org/ns#"
   xmlns:rdf="http://www.w3.org/1999/02/22-rdf-syntax-ns#"
   xmlns:svg="http://www.w3.org/2000/svg"
   xmlns="http://www.w3.org/2000/svg"
   xmlns:sodipodi="http://sodipodi.sourceforge.net/DTD/sodipodi-0.dtd"
   xmlns:inkscape="http://www.inkscape.org/namespaces/inkscape"
   width="138"
   height="28"
   viewBox="0 0 138 28"
   id="svg4261"
   version="1.1"
   inkscape:version="0.91 r13725"
   sodipodi:docname="cinegen_eml_signature_v2_138x24.svg">
  <defs
     id="defs4263" />
  <sodipodi:namedview
     id="base"
     pagecolor="#ffffff"
     bordercolor="#666666"
     borderopacity="1.0"
     inkscape:pageopacity="0.0"
     inkscape:pageshadow="2"
     inkscape:zoom="10.550725"
     inkscape:cx="69"
     inkscape:cy="14"
     inkscape:document-units="px"
     inkscape:current-layer="layer1"
     showgrid="false"
     inkscape:showpageshadow="false"
     fit-margin-top="2"
     fit-margin-left="4"
     fit-margin-right="4"
     fit-margin-bottom="2"
     inkscape:window-width="1920"
     inkscape:window-height="1151"
     inkscape:window-x="1920"
     inkscape:window-y="1"
     inkscape:window-maximized="1"
     inkscape:snap-intersection-paths="true"
     inkscape:object-nodes="true"
     units="px" />
  <metadata
     id="metadata4266">
    <rdf:RDF>
      <cc:Work
         rdf:about="">
        <dc:format>image/svg+xml</dc:format>
        <dc:type
           rdf:resource="http://purl.org/dc/dcmitype/StillImage" />
        <dc:title></dc:title>
      </cc:Work>
    </rdf:RDF>
  </metadata>
  <g
     inkscape:label="Layer 1"
     inkscape:groupmode="layer"
     id="layer1"
     transform="translate(-89.603436,-179.28007)">
    <g
       id="g4180"
       transform="matrix(0.85649853,0,0,0.85649853,23.008534,27.732703)">
      <g
         id="g4751"
         transform="matrix(1.17352,0,0,1.17352,-27.555234,-35.82141)">
        <path
           sodipodi:nodetypes="cccccccccccccc"
           inkscape:connector-curvature="0"
           id="path4753"
           d="M 117.92789,203.65588 111.80256,203.65588 109.50564,201.35896 107.20861,203.65588 104.14604,203.65588 98.020711,197.53065 107.97425,187.57711 105.67733,185.28007 93.426747,197.53065 99.551987,203.65588 93.426747,203.65588 93.426747,205.17821 117.92789,205.17821 Z"
           style="fill:#0450a1;fill-opacity:1;stroke:none" />
        <polygon
           transform="matrix(0.06015603,0,0,0.06015603,141.55373,344.10481)"
           style="fill:#5fb8f1;fill-opacity:1;stroke:none"
           points="-532.75,-2372.927 -494.566,-2334.744 -392.742,-2436.566 -513.658,-2557.482 -596.389,-2474.75 -596.389,-2398.383 -513.658,-2481.114 -469.11,-2436.566 "
           id="polygon4755" />
      </g>
      <g
         id="g4757"
         transform="matrix(1.1675432,0,0,1.1675432,-26.863306,-36.237596)">
        <g
           id="g4759">
          <path
             inkscape:connector-curvature="0"
             id="path4761"
             style="font-style:normal;font-variant:normal;font-weight:normal;font-stretch:normal;font-size:medium;line-height:125%;font-family:'Century Gothic';-inkscape-font-specification:'Century Gothic';letter-spacing:4.28000021px;word-spacing:0px;fill:#0450a1;fill-opacity:1;stroke:none;stroke-width:1px;stroke-linecap:butt;stroke-linejoin:miter;stroke-opacity:1"
             d="M 141.63304,188.50685 140.42559,189.43325 Q 139.42633,188.13214 138.02111,187.46595 136.62631,186.78937 134.95046,186.78937 133.11848,186.78937 131.55712,187.67413 129.99577,188.5485 129.13183,190.03698 128.27829,191.51505 128.27829,193.36786 128.27829,196.16788 130.19355,198.0415 132.11921,199.91512 135.04414,199.91512 138.26052,199.91512 140.42559,197.39615 L 141.63304,198.31213 Q 140.48805,199.76939 138.77056,200.57089 137.06349,201.36198 134.95046,201.36198 130.93258,201.36198 128.61138,198.68686 126.6649,196.42811 126.6649,193.23254 126.6649,189.87044 129.01733,187.58046 131.38017,185.28007 134.92964,185.28007 137.0739,185.28007 138.80179,186.13361 140.52968,186.97673 141.63304,188.50685 Z" />
          <path
             inkscape:connector-curvature="0"
             id="path4763"
             style="font-style:normal;font-variant:normal;font-weight:normal;font-stretch:normal;font-size:medium;line-height:125%;font-family:'Century Gothic';-inkscape-font-specification:'Century Gothic';letter-spacing:4.28000021px;word-spacing:0px;fill:#0450a1;fill-opacity:1;stroke:none;stroke-width:1px;stroke-linecap:butt;stroke-linejoin:miter;stroke-opacity:1"
             d="M 145.35064,185.6652 146.88077,185.6652 146.88077,200.97683 145.35064,200.97683 145.35064,185.6652 Z" />
          <path
             inkscape:connector-curvature="0"
             id="path4765"
             style="font-style:normal;font-variant:normal;font-weight:normal;font-stretch:normal;font-size:medium;line-height:125%;font-family:'Century Gothic';-inkscape-font-specification:'Century Gothic';letter-spacing:4.28000021px;word-spacing:0px;fill:#0450a1;fill-opacity:1;stroke:none;stroke-width:1px;stroke-linecap:butt;stroke-linejoin:miter;stroke-opacity:1"
             d="M 151.24373,200.97683 151.24373,185.6652 151.57681,185.6652 161.75681,197.38573 161.75681,185.6652 163.26612,185.6652 163.26612,200.97683 162.92262,200.97683 152.8259,189.40203 152.8259,200.97683 151.24373,200.97683 Z" />
          <path
             inkscape:connector-curvature="0"
             id="path4767"
             style="font-style:normal;font-variant:normal;font-weight:normal;font-stretch:normal;font-size:medium;line-height:125%;font-family:'Century Gothic';-inkscape-font-specification:'Century Gothic';letter-spacing:4.28000021px;word-spacing:0px;fill:#0450a1;fill-opacity:1;stroke:none;stroke-width:1px;stroke-linecap:butt;stroke-linejoin:miter;stroke-opacity:1"
             d="M 167.85808,185.6652 176.63287,185.6652 176.63287,187.17451 169.3882,187.17451 169.3882,191.96264 176.57041,191.96264 176.57041,193.46154 169.3882,193.46154 169.3882,199.46754 176.57041,199.46754 176.57041,200.97683 167.85808,200.97683 167.85808,185.6652 Z" />
          <path
             inkscape:connector-curvature="0"
             id="path4769"
             style="font-style:normal;font-variant:normal;font-weight:normal;font-stretch:normal;font-size:medium;line-height:125%;font-family:'Century Gothic';-inkscape-font-specification:'Century Gothic';letter-spacing:4.28000021px;word-spacing:0px;fill:#0450a1;fill-opacity:1;stroke:none;stroke-width:1px;stroke-linecap:butt;stroke-linejoin:miter;stroke-opacity:1"
             d="M 194.90225,188.23623 193.71563,189.36039 Q 192.43532,188.10091 190.90519,187.45555 189.38548,186.79978 187.93863,186.79978 186.13787,186.79978 184.50366,187.68455 182.87986,188.56931 181.98468,190.08902 181.08951,191.59833 181.08951,193.28459 181.08951,195.01248 182.01591,196.57383 182.94231,198.12477 184.57652,199.01995 186.21074,199.90471 188.15722,199.90471 190.52006,199.90471 192.15428,198.57236 193.78849,197.24001 194.09035,195.11657 L 189.20853,195.11657 189.20853,193.63849 195.80783,193.63849 Q 195.78702,197.18797 193.69481,199.28017 191.61301,201.36198 188.11559,201.36198 183.86871,201.36198 181.39137,198.46827 179.48652,196.24074 179.48652,193.31582 179.48652,191.14034 180.57947,189.26671 181.67241,187.39309 183.57726,186.34179 185.4821,185.28007 187.88658,185.28007 189.83306,185.28007 191.55055,185.98787 193.26804,186.68528 194.90225,188.23623 Z" />
          <path
             inkscape:connector-curvature="0"
             id="path4771"
             style="font-style:normal;font-variant:normal;font-weight:normal;font-stretch:normal;font-size:medium;line-height:125%;font-family:'Century Gothic';-inkscape-font-specification:'Century Gothic';letter-spacing:4.28000021px;word-spacing:0px;fill:#0450a1;fill-opacity:1;stroke:none;stroke-width:1px;stroke-linecap:butt;stroke-linejoin:miter;stroke-opacity:1"
             d="M 199.58789,185.6652 208.36268,185.6652 208.36268,187.17451 201.11801,187.17451 201.11801,191.96264 208.30022,191.96264 208.30022,193.46154 201.11801,193.46154 201.11801,199.46754 208.30022,199.46754 208.30022,200.97683 199.58789,200.97683 199.58789,185.6652 Z" />
          <path
             inkscape:connector-curvature="0"
             id="path4773"
             style="font-style:normal;font-variant:normal;font-weight:normal;font-stretch:normal;font-size:medium;line-height:125%;font-family:'Century Gothic';-inkscape-font-specification:'Century Gothic';letter-spacing:4.28000021px;word-spacing:0px;fill:#0450a1;fill-opacity:1;stroke:none;stroke-width:1px;stroke-linecap:butt;stroke-linejoin:miter;stroke-opacity:1"
             d="M 211.8721,200.97683 211.8721,185.6652 212.20519,185.6652 222.38519,197.38573 222.38519,185.6652 223.8945,185.6652 223.8945,200.97683 223.551,200.97683 213.45427,189.40203 213.45427,200.97683 211.8721,200.97683 Z" />
        </g>
        <g
           id="g4775">
          <path
             inkscape:connector-curvature="0"
             id="path4777"
             style="font-style:normal;font-variant:normal;font-weight:bold;font-stretch:normal;font-size:medium;line-height:125%;font-family:'Century Gothic';-inkscape-font-specification:'Century Gothic Bold';text-align:center;letter-spacing:4.54415941px;word-spacing:0px;text-anchor:middle;fill:#5fb8f1;fill-opacity:1;stroke:none;stroke-width:1px;stroke-linecap:butt;stroke-linejoin:miter;stroke-opacity:1"
             d="M 132.57829,204.45989 132.04003,204.97343 Q 131.49079,204.39398 130.80421,204.39398 130.22476,204.39398 129.82657,204.78944 129.43111,205.18489 129.43111,205.76435 129.43111,206.16805 129.60685,206.48112 129.78262,206.79419 130.10392,206.97269 130.42525,207.1512 130.81794,207.1512 131.15298,207.1512 131.43037,207.02762 131.70774,206.90129 132.04003,206.57174 L 132.56181,207.1155 Q 132.11417,207.55215 131.71598,207.72242 131.31776,207.88994 130.80696,207.88994 129.865,207.88994 129.26358,207.294 128.6649,206.69532 128.6649,205.7616 128.6649,205.15743 128.93677,204.68783 129.21141,204.21822 129.71944,203.93261 130.23025,203.647 130.81794,203.647 131.31776,203.647 131.77914,203.85846 132.24324,204.06992 132.57829,204.45989 Z" />
          <path
             inkscape:connector-curvature="0"
             id="path4779"
             style="font-style:normal;font-variant:normal;font-weight:bold;font-stretch:normal;font-size:medium;line-height:125%;font-family:'Century Gothic';-inkscape-font-specification:'Century Gothic Bold';text-align:center;letter-spacing:4.54415941px;word-spacing:0px;text-anchor:middle;fill:#5fb8f1;fill-opacity:1;stroke:none;stroke-width:1px;stroke-linecap:butt;stroke-linejoin:miter;stroke-opacity:1"
             d="M 141.82766,203.647 Q 142.68448,203.647 143.29964,204.26765 143.91754,204.8883 143.91754,205.78083 143.91754,206.66511 143.30789,207.27753 142.70096,207.88994 141.83316,207.88994 140.92415,207.88994 140.32272,207.26105 139.72129,206.63216 139.72129,205.7671 139.72129,205.18764 140.00142,204.70156 140.28152,204.21547 140.77035,203.93261 141.26193,203.647 141.82766,203.647 Z M 141.81942,204.39947 Q 141.25919,204.39947 140.87747,204.78944 140.49573,205.1794 140.49573,205.78083 140.49573,206.45091 140.97633,206.84087 141.34982,207.14571 141.83316,207.14571 142.37965,207.14571 142.76413,206.75025 143.1486,206.35479 143.1486,205.77533 143.1486,205.19862 142.76138,204.80042 142.37417,204.39947 141.81942,204.39947 Z" />
          <path
             inkscape:connector-curvature="0"
             id="path4781"
             style="font-style:normal;font-variant:normal;font-weight:bold;font-stretch:normal;font-size:medium;line-height:125%;font-family:'Century Gothic';-inkscape-font-specification:'Century Gothic Bold';text-align:center;letter-spacing:4.54415941px;word-spacing:0px;text-anchor:middle;fill:#5fb8f1;fill-opacity:1;stroke:none;stroke-width:1px;stroke-linecap:butt;stroke-linejoin:miter;stroke-opacity:1"
             d="M 151.06055,203.74861 151.79653,203.74861 153.52941,206.40697 153.52941,203.74861 154.29836,203.74861 154.29836,207.78833 153.55963,207.78833 151.82949,205.13821 151.82949,207.78833 151.06055,207.78833 151.06055,203.74861 Z" />
          <path
             inkscape:connector-curvature="0"
             id="path4783"
             style="font-style:normal;font-variant:normal;font-weight:bold;font-stretch:normal;font-size:medium;line-height:125%;font-family:'Century Gothic';-inkscape-font-specification:'Century Gothic Bold';text-align:center;letter-spacing:4.54415941px;word-spacing:0px;text-anchor:middle;fill:#5fb8f1;fill-opacity:1;stroke:none;stroke-width:1px;stroke-linecap:butt;stroke-linejoin:miter;stroke-opacity:1"
             d="M 163.90749,204.29786 163.339,204.80042 Q 163.03966,204.38299 162.72934,204.38299 162.57831,204.38299 162.48218,204.46538 162.38607,204.54502 162.38607,204.64663 162.38607,204.74824 162.45472,204.83887 162.54809,204.9597 163.0177,205.35791 163.4571,205.7259 163.55047,205.82202 163.7839,206.0582 163.88001,206.27515 163.97888,206.48936 163.97888,206.74476 163.97888,207.24182 163.63561,207.56588 163.29233,207.88994 162.74033,207.88994 162.30918,207.88994 161.98787,207.67848 161.6693,207.46702 161.44136,207.01389 L 162.08673,206.62392 Q 162.37783,207.15944 162.7568,207.15944 162.95453,207.15944 163.0891,207.0441 163.22367,206.92875 163.22367,206.77771 163.22367,206.6404 163.12205,206.50309 163.02044,206.36578 162.67442,206.08291 162.01532,205.54465 161.82308,205.25355 161.63085,204.9597 161.63085,204.6686 161.63085,204.24843 161.94941,203.94909 162.27073,203.647 162.74033,203.647 163.04242,203.647 163.31429,203.78706 163.58891,203.92712 163.90749,204.29786 Z" />
          <path
             inkscape:connector-curvature="0"
             id="path4785"
             style="font-style:normal;font-variant:normal;font-weight:bold;font-stretch:normal;font-size:medium;line-height:125%;font-family:'Century Gothic';-inkscape-font-specification:'Century Gothic Bold';text-align:center;letter-spacing:4.54415941px;word-spacing:0px;text-anchor:middle;fill:#5fb8f1;fill-opacity:1;stroke:none;stroke-width:1px;stroke-linecap:butt;stroke-linejoin:miter;stroke-opacity:1"
             d="M 171.12189,203.74861 171.89357,203.74861 171.89357,206.36303 Q 171.89357,206.70082 171.95124,206.84087 172.01167,206.98093 172.14624,207.06607 172.28354,207.14845 172.47578,207.14845 172.67901,207.14845 172.82455,207.05508 172.97284,206.96171 173.02778,206.8189 173.08545,206.67335 173.08545,206.26691 L 173.08545,203.74861 173.85713,203.74861 173.85713,206.15706 Q 173.85713,206.76673 173.78848,207.0029 173.71983,207.23908 173.52484,207.45878 173.3326,207.67848 173.07996,207.78558 172.8273,207.88994 172.49225,207.88994 172.05286,207.88994 171.72605,207.68946 171.402,207.48624 171.26194,207.18415 171.12189,206.87932 171.12189,206.15706 L 171.12189,203.74861 Z" />
          <path
             inkscape:connector-curvature="0"
             id="path4787"
             style="font-style:normal;font-variant:normal;font-weight:bold;font-stretch:normal;font-size:medium;line-height:125%;font-family:'Century Gothic';-inkscape-font-specification:'Century Gothic Bold';text-align:center;letter-spacing:4.54415941px;word-spacing:0px;text-anchor:middle;fill:#5fb8f1;fill-opacity:1;stroke:none;stroke-width:1px;stroke-linecap:butt;stroke-linejoin:miter;stroke-opacity:1"
             d="M 181.00013,203.74861 181.76906,203.74861 181.76906,207.05508 182.88954,207.05508 182.88954,207.78833 181.00013,207.78833 181.00013,203.74861 Z" />
          <path
             inkscape:connector-curvature="0"
             id="path4789"
             style="font-style:normal;font-variant:normal;font-weight:bold;font-stretch:normal;font-size:medium;line-height:125%;font-family:'Century Gothic';-inkscape-font-specification:'Century Gothic Bold';text-align:center;letter-spacing:4.54415941px;word-spacing:0px;text-anchor:middle;fill:#5fb8f1;fill-opacity:1;stroke:none;stroke-width:1px;stroke-linecap:butt;stroke-linejoin:miter;stroke-opacity:1"
             d="M 190.03255,203.74861 192.26524,203.74861 192.26524,204.50657 191.52926,204.50657 191.52926,207.78833 190.74932,207.78833 190.74932,204.50657 190.03255,204.50657 190.03255,203.74861 Z" />
          <path
             inkscape:connector-curvature="0"
             id="path4791"
             style="font-style:normal;font-variant:normal;font-weight:bold;font-stretch:normal;font-size:medium;line-height:125%;font-family:'Century Gothic';-inkscape-font-specification:'Century Gothic Bold';text-align:center;letter-spacing:4.54415941px;word-spacing:0px;text-anchor:middle;fill:#5fb8f1;fill-opacity:1;stroke:none;stroke-width:1px;stroke-linecap:butt;stroke-linejoin:miter;stroke-opacity:1"
             d="M 199.40825,203.74861 200.1717,203.74861 200.1717,207.78833 199.40825,207.78833 199.40825,203.74861 Z" />
          <path
             inkscape:connector-curvature="0"
             id="path4793"
             style="font-style:normal;font-variant:normal;font-weight:bold;font-stretch:normal;font-size:medium;line-height:125%;font-family:'Century Gothic';-inkscape-font-specification:'Century Gothic Bold';text-align:center;letter-spacing:4.54415941px;word-spacing:0px;text-anchor:middle;fill:#5fb8f1;fill-opacity:1;stroke:none;stroke-width:1px;stroke-linecap:butt;stroke-linejoin:miter;stroke-opacity:1"
             d="M 207.3147,203.74861 208.05068,203.74861 209.78356,206.40697 209.78356,203.74861 210.5525,203.74861 210.5525,207.78833 209.81376,207.78833 208.08363,205.13821 208.08363,207.78833 207.3147,207.78833 207.3147,203.74861 Z" />
          <path
             inkscape:connector-curvature="0"
             id="path4795"
             style="font-style:normal;font-variant:normal;font-weight:bold;font-stretch:normal;font-size:medium;line-height:125%;font-family:'Century Gothic';-inkscape-font-specification:'Century Gothic Bold';text-align:center;letter-spacing:4.54415941px;word-spacing:0px;text-anchor:middle;fill:#5fb8f1;fill-opacity:1;stroke:none;stroke-width:1px;stroke-linecap:butt;stroke-linejoin:miter;stroke-opacity:1"
             d="M 221.60615,204.40771 221.06514,204.94323 Q 220.5516,204.39947 219.86778,204.39947 219.27185,204.39947 218.86815,204.79493 218.46719,205.19039 218.46719,205.75611 218.46719,206.34106 218.88462,206.7475 219.30206,207.15394 219.91446,207.15394 220.31266,207.15394 220.58455,206.98642 220.85917,206.8189 221.02669,206.46189 L 219.85679,206.46189 219.85679,205.73963 221.88901,205.73963 221.8945,205.9099 Q 221.8945,206.43992 221.61987,206.91502 221.34525,207.39012 220.90861,207.64003 220.47195,207.88994 219.88426,207.88994 219.25536,207.88994 218.76105,207.61806 218.26947,207.34343 217.98112,206.83813 217.69551,206.33282 217.69551,205.74787 217.69551,204.94597 218.22552,204.35278 218.85442,203.647 219.86229,203.647 220.38956,203.647 220.84818,203.84198 221.23541,204.00676 221.60615,204.40771 Z" />
        </g>
      </g>
    </g>
  </g>
</svg>
